<svg xmlns="http://www.w3.org/2000/svg" viewBox="0 0 392.33 392.33"><defs><style>.cls-1{fill:#f1ca4c;}.cls-2{fill:#fff;}</style></defs><g id="Capa_2" data-name="Capa 2"><g id="Capa_1-2" data-name="Capa 1"><circle class="cls-1" cx="196.17" cy="196.17" r="196.17"/><path class="cls-2" d="M321.32,191.16H307A111,111,0,0,0,201.18,85.39V71a5,5,0,0,0-10,0V85.39A111,111,0,0,0,85.39,191.16H71a5,5,0,1,0,0,10H85.39A111,111,0,0,0,191.16,307v14.36a5,5,0,0,0,10,0V307A111.05,111.05,0,0,0,307,201.18h14.37a5,5,0,0,0,0-10Zm-24.39,0H262.25a66.38,66.38,0,0,0-61.07-61.08V95.4A101,101,0,0,1,296.93,191.16Zm-66.88,10h22.16a56.36,56.36,0,0,1-51,51V230.05a5,5,0,1,0-10,0v22.16a56.34,56.34,0,0,1-51-51h22.16a5,5,0,1,0,0-10H140.13a56.34,56.34,0,0,1,51-51v22.16a5,5,0,0,0,10,0V140.13a56.35,56.35,0,0,1,51,51H230.05a5,5,0,1,0,0,10ZM191.16,95.4v34.68a66.38,66.38,0,0,0-61.08,61.08H95.4A101,101,0,0,1,191.16,95.4ZM95.4,201.18h34.68a66.38,66.38,0,0,0,61.08,61.07v34.68A101,101,0,0,1,95.4,201.18Zm105.78,95.75V262.25a66.37,66.37,0,0,0,61.07-61.07h34.68A101,101,0,0,1,201.18,296.93Z"/></g></g></svg>