<svg xmlns="http://www.w3.org/2000/svg" viewBox="0 0 392.33 392.33"><defs><style>.cls-1{fill:#f1ca4c;}.cls-2{fill:#fff;}</style></defs><g id="Capa_2" data-name="Capa 2"><g id="Capa_1-2" data-name="Capa 1"><circle class="cls-1" cx="196.17" cy="196.17" r="196.17"/><path class="cls-2" d="M296.93,141.67H146.23v-8a23.59,23.59,0,1,0-31,0v8H95.4a4.11,4.11,0,0,0-4.12,4.11v39a4.11,4.11,0,0,0,4.12,4.12h14.14a4.11,4.11,0,0,0,3.34-1.71,15.35,15.35,0,1,1,0,17.93,4.14,4.14,0,0,0-3.34-1.71H95.4a4.12,4.12,0,0,0-4.12,4.12v39a4.12,4.12,0,0,0,4.12,4.12H245v8a23.58,23.58,0,1,0,31,0v-8h21a4.12,4.12,0,0,0,4.12-4.12V145.78A4.11,4.11,0,0,0,296.93,141.67Zm-197.41,70h8a23.58,23.58,0,1,0,0-31h-8V149.9h19.84a4.12,4.12,0,0,0,4.12-4.12V131.64a4.11,4.11,0,0,0-1.71-3.33,15.35,15.35,0,1,1,17.93,0,4.11,4.11,0,0,0-1.71,3.33v14.14a4.11,4.11,0,0,0,4.12,4.12h49.94v34.89h0a4.11,4.11,0,0,0,4.12,4.12h14.14a4.08,4.08,0,0,0,3.33-1.71,15.35,15.35,0,1,1,0,17.93,4.11,4.11,0,0,0-3.33-1.71H196.17a4.12,4.12,0,0,0-4.12,4.12v34.89H99.52Zm193.3,30.77h-21a4.12,4.12,0,0,0-4.12,4.12v14.14a4.11,4.11,0,0,0,1.71,3.34,15.35,15.35,0,1,1-17.93,0,4.14,4.14,0,0,0,1.71-3.34V246.55a4.13,4.13,0,0,0-4.12-4.12h-48.8V211.66h8.05a23.58,23.58,0,1,0,0-31h-8.05V149.9h92.54Z"/></g></g></svg>