<svg xmlns="http://www.w3.org/2000/svg" viewBox="0 0 392.33 392.33"><defs><style>.cls-1{fill:#f1ca4c;}.cls-2{fill:#fff;}</style></defs><g id="Capa_2" data-name="Capa 2"><g id="Capa_1-2" data-name="Capa 1"><circle class="cls-1" cx="196.17" cy="196.17" r="196.17"/><path class="cls-2" d="M91.55,224.39h22.59v42.7a5,5,0,0,0,5,5h27.53v35.8a5,5,0,0,0,5,5h108a5,5,0,0,0,5-5v-45a101.73,101.73,0,1,0-161.71-93L86.82,217.81a5,5,0,0,0,4.73,6.58Zm21-51.86a5.27,5.27,0,0,0,.25-1.23,91.76,91.76,0,1,1,144,85,5,5,0,0,0-2.12,4.08v42.54h-98v-35.8a5,5,0,0,0-5-5H124.12V219.4a5,5,0,0,0-5-5H98.49Z"/><path class="cls-2" d="M183.53,217V232.5a5,5,0,0,0,5,5h31a5,5,0,0,0,5-5V217a37.9,37.9,0,1,0-41,0ZM204,157.24a27.92,27.92,0,0,1,13.17,52.54,5,5,0,0,0-2.64,4.4v13.33H193.51V214.18a5,5,0,0,0-2.63-4.4A27.92,27.92,0,0,1,204,157.24Z"/><path class="cls-2" d="M204,141.52a5,5,0,0,0,5-5V129.9a5,5,0,0,0-10,0v6.62A5,5,0,0,0,204,141.52Z"/><path class="cls-2" d="M166.12,154.3a5,5,0,0,0,7.06-7.06l-4.68-4.68a5,5,0,0,0-7.06,7.06Z"/><path class="cls-2" d="M238.43,155.76A5,5,0,0,0,242,154.3l4.69-4.68a5,5,0,0,0-7.06-7.06l-4.68,4.68a5,5,0,0,0,3.52,8.52Z"/></g></g></svg>